PathFileType	4	(X/Y/Z)	C:/Users/beibeiliu/ov580/test_trc/User3\sequence.30_training_dense_right.trc
DataRate	CameraRate	NumFrames	NumMarkers	Units	OrigDataRate	OrigDataStartFrame	OrigNumFrames
120	120	18	19	mm	120	38	74
Frame#	Time	ThumbCMC			ThumbMCP			ThumbIP			ThumbTip			IndexMCP			IndexPIP			IndexTip			MiddleMCP			MiddlePIP			MiddleTip			RingMCP			RingPIP			RingTip			PinkyMCP			PinkyPIP			PinkyTip			BackHand1			BackHand2			BackHand3	
		X0	Y0	Z0	X1	Y1	Z1	X2	Y2	Z2	X3	Y3	Z3	X4	Y4	Z4	X5	Y5	Z5	X6	Y6	Z6	X7	Y7	Z7	X8	Y8	Z8	X9	Y9	Z9	X10	Y10	Z10	X11	Y11	Z11	X12	Y12	Z12	X13	Y13	Z13	X14	Y14	Z14	X15	Y15	Z15	X16	Y16	Z16	X17	Y17	Z17	X18	Y18	Z18	
37	0.308333	151.361	62.9904	11.5716	117.098	62.2784	-0.207751	90.5946	47.2722	-17.8498	85.5381	21.8999	-24.3345	126.412	32.3578	-56.4197	98.247	18.5081	-58.5236	76.3046	14.187	-34.5057	127.233	11.0505	-55.8201	100.876	-2.21178	-41.7286	98.7521	2.74412	-2.3981	137.862	-4.86091	-43.8144	111.462	-11.582	-23.1219	115.689	2.20746	3.86414	147.49	-19.8637	-31.2681	123.492	-20.3321	-14.6335	126.401	-1.53761	7.4535	188.387	20.4107	-22.5388	203.24	25.2955	-0.375015	178.515	51.6696	-15.0947	
38	0.316667	154.846	77.6068	17.0972	119.261	80.6947	12.2965	88.5879	69.1445	3.06698	77.6973	46.6267	2.63244	107.293	43.999	-40.7528	78.0763	39.1638	-33.0286	65.2013	36.9841	-4.7332	110.681	22.1756	-37.629	82.3374	20.4345	-20.5593	85.2376	28.5378	19.8145	114.946	8.75886	-27.0389	95.0094	3.65612	-6.95538	101.442	20.1519	22.3962	130.058	-6.48235	-15.757	108.657	-7.56104	1.32618	112.114	11.7844	22.9575	174.189	24.821	-16.5784	194.042	31.3338	0.60409	175.116	57.4647	-12.6386	
39	0.325	152.59	91.3807	15.761	115.789	93.8258	12.5786	88.0516	84.0751	10.0526	73.5378	66.0508	12.9948	99.9906	62.5078	-33.6827	67.8613	60.0028	-25.3073	55.4246	60.9861	4.89805	93.1674	41.2683	-32.6906	68.0451	38.502	-9.52543	77.5777	44.6502	27.5883	99.5046	20.137	-21.4247	79.2295	22.515	-0.0647233	90.2083	36.0363	28.9995	112.962	9.1975	-12.9119	91.5861	9.23207	7.13538	100.999	26.1319	30.5439	161.167	28.6337	-17.7391	186.2	32.9812	0.344027	166.713	65.4554	-15.1607	
40	0.333333	146.411	93.1034	7.00729	113.766	99.1269	7.36975	83.3813	93.8067	4.5046	67.7583	72.8756	3.38787	93.6426	66.9719	-42.2327	62.6389	62.7108	-32.5805	50.2417	66.7959	-0.607344	88.9122	43.2306	-40.2393	61.8302	46.722	-23.0227	68.9818	52.9244	16.9991	96.133	25.1439	-29.6581	70.2893	28.4701	-11.3459	79.5931	37.7342	18.8235	104.65	9.74024	-19.7914	81.5387	13.1891	-2.54362	90.0409	27.1778	21.8126	152.226	33.6889	-23.6342	178.255	34.5895	-7.43632	160.58	64.3655	-18.37	
41	0.341667	144.941	91.4473	-2.5513	113.105	99.6484	-9.16979	84.8818	91.9167	-23.1961	66.0095	72.9877	-29.3231	105.6	70.0728	-66.5161	72.536	64.3502	-65.7937	55.6984	69.0395	-40.4997	98.5241	48.2323	-68.2931	69.5189	44.8836	-55.4142	73.1179	50.4314	-15.7142	103.482	28.0988	-57.9678	76.9702	29.5512	-48.0049	83.8313	38.8744	-12.4611	115.73	12.2334	-43.2366	86.3275	17.5341	-36.1098	89.1518	24.877	-9.92145	160.567	35.6051	-33.578	176.238	36.971	-13.6004	164.934	70.9408	-26.4376	
42	0.35	149.57	98.8907	-21.8885	124.755	103.172	-40.6011	104.919	103.461	-67.2829	91.0544	90.5128	-86.7209	147.512	82.8485	-99.5258	123.677	78.8187	-116.344	95.5128	77.5235	-101.103	148.187	62.269	-106.083	119.935	57.7593	-115.008	99.5337	58.7998	-79.0068	150.649	47.5221	-94.4701	121.95	40.885	-103.493	107.373	47.7968	-75.9095	154.282	25.1662	-76.967	129.428	21.7459	-90.4525	111.281	32.2145	-65.8801	182.256	51.4826	-45.9627	189.257	49.7802	-21.9669	178.933	84.4292	-38.3754	
43	0.358333	161.757	118.306	-45.4916	149.023	118.339	-73.0164	139.396	124.207	-100.472	133.314	122.127	-122.774	202.763	114.616	-109.014	195.744	117.732	-145.749	169.644	108.609	-154.242	212.891	95.3022	-114.621	202.631	93.2624	-147.971	166.28	82.0394	-145.561	215.006	75.9166	-106.78	203.985	69.0613	-138.348	173.735	61.7345	-134.755	210.637	50.0113	-94.2318	202.859	44.7221	-120.363	173.032	44.6213	-122.848	210.599	77.5429	-55.0655	208.672	74.2018	-30.3605	199.573	104.122	-44.1585	
44	0.366667	181.438	130.372	-59.6627	168.289	136.273	-83.8628	159.343	143.609	-111.298	153.252	145.536	-134.876	234.279	141.689	-114.596	238.058	147.752	-142.585	227.939	136.353	-170.665	249.201	121.411	-115.89	254.652	117.802	-147.933	230.28	105.454	-173.675	253.186	99.6896	-108.824	258.479	96.0821	-139.051	239.262	83.4848	-158.696	244.255	74.8655	-96.6618	251.2	62.3143	-121.285	234.643	59.2971	-141.609	237.672	98.6253	-61.3717	225.232	92.1303	-31.8754	216.371	125.043	-49.4585	
45	0.375	194.363	134.654	-56.3873	181.421	142.069	-84.1916	171.806	150.404	-110.841	164.211	153.509	-132.75	246.196	142.815	-109.842	250.195	151.854	-139.502	250.51	148.102	-169.41	263.053	127.063	-112.886	270.277	127.032	-141.367	263.98	114.338	-176.065	265.086	106.156	-102.856	277.265	103.009	-132.922	273.512	93.2011	-159.782	265.103	77.7637	-92.1863	271.281	71.7337	-111.787	269.568	56.5711	-136.92	249.721	106.711	-55.5477	242.639	98.0227	-25.8071	230.091	133.746	-49.1251	
46	0.383333	192.168	127.095	-49.2592	181.564	130.468	-75.4245	170.702	137.719	-105.899	164.449	137.373	-121.964	238.775	133.819	-109.591	244.467	134.754	-136.514	247.852	132.866	-165.446	258.181	113.596	-110.983	262.78	112.765	-140.738	262.526	104.158	-171.791	262.53	96.2919	-100.584	271.627	92.6589	-129.194	273.327	84.4336	-155.348	266.694	68.8028	-87.9647	272.542	59.7599	-110.432	273.332	54.6525	-130.462	254.697	95.3243	-53.05	247.485	92.904	-24.1182	232.226	122.252	-43.0369	
47	0.391667	194.929	107.633	-34.84	177.834	114.03	-64.1171	167.29	116.871	-91.2507	164.897	112.738	-113.819	233.033	119.209	-101.434	239.098	117.243	-130.204	237.066	118.427	-154.719	256.768	99.0481	-106.009	257.404	97.034	-136.854	254.394	90.1543	-167.712	263.018	83.764	-93.622	270.793	77.614	-123.193	269.556	71.1957	-146.674	268.272	61.2745	-80.6994	272.557	56.4014	-102.12	276.311	47.8808	-122.785	258.212	87.4263	-41.03	249.477	85.8561	-12.089	230.804	111.012	-31.2109	
48	0.4	211.751	87.7229	-25.9851	195.777	87.3554	-52.9938	187.074	86.9109	-83.7486	183.195	81.3418	-102.225	255.928	105.092	-94.6422	254.307	106.715	-117.658	257.858	98.9261	-142.575	278.778	91.4482	-93.7859	278.088	88.6148	-123.556	271.953	72.1464	-153.923	286.849	79.7595	-82.9367	293.969	73.2028	-108.641	288.93	53.8941	-137.52	295.202	55.5371	-67.0484	303.293	46.5381	-90.0884	297.923	38.5802	-112.214	279.019	78.7674	-27.4864	274.289	75.7951	-2.00554	249.095	98.1243	-20.827	
49	0.408333	249.752	69.0462	-28.1451	239.888	66.6889	-61.2362	230.831	64.8924	-85.614	232.811	58.9614	-109.892	300.213	86.7603	-82.9242	306.306	84.1063	-115.666	303.858	70.412	-139.758	316.919	76.5604	-81.7434	322.72	63.0965	-116.438	305.841	40.8626	-135.07	330.155	58.8538	-73.1072	331.663	52.0645	-101.249	315.061	25.6255	-118.57	330.408	39.8114	-57.0293	336.81	26.5635	-81.8434	323.079	15.2443	-99.9077	314.298	61.3958	-20.2649	301.632	57.3502	4.73077	284.278	81.1868	-14.5291	
50	0.416667	271.311	58.8436	-35.6615	267.292	56.1449	-67.1745	269.71	54.0327	-93.7857	277.811	46.6451	-118.607	336.41	64.6666	-78.0191	343.356	57.4257	-108.31	333.263	40.6648	-129.453	347.889	47.0929	-80.0692	343.309	34.8624	-107.649	315.06	8.59358	-112.525	351.842	26.4608	-66.1195	347.427	14.2824	-93.1415	315.03	-2.71703	-94.5178	346.948	9.86774	-52.5882	344.774	1.48032	-78.7068	319.358	-12.7978	-83.5699	331.047	36.5342	-16.6056	314.43	33.4571	8.60472	304.911	58.2874	-11.6663	
51	0.425	270.474	52.6175	-32.083	278.697	51.8507	-66.2132	285.028	47.7545	-91.7614	297.376	37.9796	-113.042	340.357	49.9026	-68.8214	344.593	41.8243	-99.3958	324.051	29.1065	-121.758	346.508	30.4391	-69.9886	336.649	18.2411	-100.203	296.685	5.94005	-93.426	347.64	8.04541	-60.9468	331.439	-1.37217	-89.3446	300.156	-6.65158	-76.7802	343.549	-5.84347	-51.3471	335.264	-17.3043	-72.9708	301.782	-15.4183	-71.7517	328.538	20.9788	-10.1571	307.464	14.5983	13.8832	304.28	48.593	-7.14939	
52	0.433333	263.669	50.9343	-27.2061	266.411	53.2255	-61.4866	277.117	48.8215	-87.8935	286.314	39.1485	-108.061	328.856	46.5874	-72.0666	324.161	41.3791	-103.13	300.599	22.4493	-116.305	333.176	24.7607	-72.8315	313.667	16.6154	-97.1256	279.289	5.04496	-79.2729	331.186	6.77539	-65.758	310.417	-3.96872	-84.6256	281.104	-3.19701	-65.2436	329.678	-8.99061	-52.3482	313.973	-15.6499	-74.5749	285.595	-12.3421	-64.4936	320.05	14.2674	-6.59828	294.734	12.2388	15.8606	295.893	41.3245	-4.01651	
53	0.441667	247.393	47.6362	-21.1954	243.028	51.5806	-55.0093	246.044	48.8291	-82.2354	258.467	32.7772	-105.836	301.089	43.8485	-75.2554	292.916	34.7911	-103.63	267.271	19.7109	-113.222	303.44	23.4874	-77.8556	276.292	8.44733	-97.1558	249.541	2.53223	-72.2568	302.833	-0.159517	-72.1596	277.368	-9.19612	-83.088	253.024	-0.186591	-58.1279	304.36	-15.5836	-58.0706	282.186	-22.6484	-73.3323	258.068	-12.3855	-58.7633	305.332	11.888	-9.82778	287.538	9.83107	14.5053	283.774	42.7072	-4.67962	
54	0.45	223.459	44.2339	-14.282	208.955	45.4938	-42.6996	201.717	43.1399	-73.9337	202.468	24.5326	-90.185	252.154	32.7082	-87.0578	229.368	23.936	-108.071	204.405	12.5317	-105.017	251.539	12.8337	-86.247	218.92	1.33472	-91.2494	200.756	2.35744	-60.6853	251.171	-5.48685	-76.7859	224.508	-17.0322	-76.1108	210.667	-7.15225	-47.6339	255.019	-22.4236	-65.9025	227.992	-24.6507	-66.0615	215.857	-13.2163	-38.4373	277.025	9.69047	-25.0706	270.68	7.21853	8.20141	262.91	40.402	-14.2419	
